<svg width="23" height="25" viewBox="0 0 23 25" fill="none" xmlns="http://www.w3.org/2000/svg">
<path d="M17.909 1.61523V3.79734M4.81641 1.61523V3.79734" stroke="#080808" stroke-width="1.5" stroke-linecap="round" stroke-linejoin="round"/>
<path d="M1 12.7909C1 8.03686 1 5.65984 2.36613 4.18295C3.73225 2.70605 5.931 2.70605 10.3285 2.70605H12.4015C16.799 2.70605 18.9977 2.70605 20.3638 4.18295C21.73 5.65984 21.73 8.03686 21.73 12.7909V13.3512C21.73 18.1052 21.73 20.4822 20.3638 21.9591C18.9977 23.436 16.799 23.436 12.4015 23.436H10.3285C5.931 23.436 3.73225 23.436 2.36613 21.9591C1 20.4822 1 18.1052 1 13.3512V12.7909Z" fill="#080808" stroke="#080808" stroke-width="1.5" stroke-linecap="round" stroke-linejoin="round"/>
<path d="M2.72461 8.32275L19.9997 7.99994" stroke="white" stroke-width="1.5" stroke-linecap="round" stroke-linejoin="round"/>
<path d="M13.6367 14.2855C13.1476 13.5533 12.3136 13.071 11.3669 13.071C10.4203 13.071 9.58624 13.5533 9.09712 14.2855C8.8079 14.7185 8.63928 15.2389 8.63928 15.7987C8.63928 16.3585 8.80794 16.879 9.09723 17.312C9.58636 18.0441 10.4203 18.5263 11.3669 18.5263C12.3135 18.5263 13.1474 18.0441 13.6366 17.312C13.9259 16.879 14.0945 16.3585 14.0945 15.7987C14.0945 15.2389 13.9259 14.7185 13.6367 14.2855Z" fill="white"/>
<path d="M11.3669 18.5263V19.6173M11.3669 18.5263C10.4203 18.5263 9.58636 18.0441 9.09723 17.312M11.3669 18.5263C12.3135 18.5263 13.1474 18.0441 13.6366 17.312M11.3669 13.071C12.3136 13.071 13.1476 13.5533 13.6367 14.2855M11.3669 13.071C10.4203 13.071 9.58624 13.5533 9.09712 14.2855M11.3669 13.071V11.98M14.6401 13.6166L13.6367 14.2855M8.0941 17.9808L9.09723 17.312M8.09375 13.6166L9.09712 14.2855M14.6397 17.9808L13.6366 17.312M13.6367 14.2855C13.9259 14.7185 14.0945 15.2389 14.0945 15.7987C14.0945 16.3585 13.9259 16.879 13.6366 17.312M9.09712 14.2855C8.8079 14.7185 8.63928 15.2389 8.63928 15.7987C8.63928 16.3585 8.80794 16.879 9.09723 17.312" stroke="white" stroke-width="1.5" stroke-linecap="round"/>
</svg>
