<svg width="28" height="28" viewBox="0 0 28 28" fill="none" xmlns="http://www.w3.org/2000/svg">
<path d="M25.9697 27.0303C26.2626 27.3232 26.7374 27.3232 27.0303 27.0303C27.3232 26.7374 27.3232 26.2626 27.0303 25.9697L25.9697 27.0303ZM23.9697 25.0303L25.9697 27.0303L27.0303 25.9697L25.0303 23.9697L23.9697 25.0303ZM26.25 21C26.25 18.1005 23.8995 15.75 21 15.75V17.25C23.0711 17.25 24.75 18.9289 24.75 21H26.25ZM21 15.75C18.1005 15.75 15.75 18.1005 15.75 21H17.25C17.25 18.9289 18.9289 17.25 21 17.25V15.75ZM15.75 21C15.75 23.8995 18.1005 26.25 21 26.25V24.75C18.9289 24.75 17.25 23.0711 17.25 21H15.75ZM21 26.25C23.8995 26.25 26.25 23.8995 26.25 21H24.75C24.75 23.0711 23.0711 24.75 21 24.75V26.25Z" fill="#080808"/>
<path d="M9.5 20L13.5 21.5C13.5 19.5 13.9 15.6 17.5 14C21.1 12.4 24.5403 13.6698 26.0403 14.6698L26.5 7.5L25.5 5.5H17.5L9 1L1.5 6V20L2.5 22.5L9.5 20Z" fill="#080808"/>
<path d="M26.5 14.0802V10.5219C26.5 8.09734 26.5 6.88508 25.7678 6.13188C25.0355 5.37868 23.857 5.37868 21.5 5.37868H18.9017C17.755 5.37868 17.7455 5.37644 16.7144 4.86043L12.5498 2.77643C10.811 1.9063 9.94165 1.47124 9.01547 1.50147C8.08929 1.53171 7.24847 2.0226 5.56681 3.00439L4.03197 3.90046C2.79673 4.62162 2.17911 4.9822 1.83956 5.58205C1.5 6.18191 1.5 6.91241 1.5 8.37341V18.6447C1.5 20.5643 1.5 21.5241 1.92783 22.0583C2.21251 22.4138 2.61145 22.6527 3.0525 22.7319C3.71533 22.851 4.52685 22.3772 6.14984 21.4297C7.25195 20.7862 8.31264 20.118 9.63109 20.2992C10.7359 20.451 11.7625 21.1481 12.75 21.6423" stroke="#080808" stroke-width="1.5" stroke-linecap="round" stroke-linejoin="round"/>
<path d="M9 4L9 18" stroke="white" stroke-width="1.5" stroke-linecap="round" stroke-linejoin="round"/>
<path d="M18 7L18 11" stroke="white" stroke-width="1.5" stroke-linecap="round" stroke-linejoin="round"/>
</svg>
