<svg width="23" height="25" viewBox="0 0 23 25" fill="none" xmlns="http://www.w3.org/2000/svg">
<path d="M13.2104 23.272C12.7117 23.739 12.045 24 11.3513 24C10.6575 24 9.99091 23.739 9.49216 23.272C4.92498 18.9699 -1.19562 14.164 1.78921 7.18661C3.40308 3.41403 7.2771 1 11.3513 1C15.4255 1 19.2995 3.41403 20.9134 7.18661C23.8944 14.1552 17.7889 18.9847 13.2104 23.272Z" stroke="#5E5E5E" stroke-width="1.5"/>
<path d="M12.0426 7.90648L12.751 9.33483C12.8475 9.53366 13.1051 9.72438 13.3224 9.7609L14.6063 9.97596C15.4273 10.1139 15.6205 10.7145 15.0289 11.3069L14.0308 12.3133C13.8617 12.4837 13.7692 12.8124 13.8215 13.0477L14.1072 14.2935C14.3326 15.2795 13.8134 15.661 12.9482 15.1456L11.7448 14.4274C11.5275 14.2975 11.1693 14.2975 10.948 14.4274L9.74462 15.1456C8.88336 15.661 8.36017 15.2755 8.58555 14.2935L8.87129 13.0477C8.92361 12.8124 8.83104 12.4837 8.66201 12.3133L7.66392 11.3069C7.07634 10.7145 7.26549 10.1139 8.0865 9.97596L9.37033 9.7609C9.58364 9.72438 9.84121 9.53366 9.9378 9.33483L10.6461 7.90648C11.0325 7.13143 11.6603 7.13143 12.0426 7.90648Z" stroke="#5E5E5E" stroke-width="1.5" stroke-linecap="round" stroke-linejoin="round"/>
</svg>
