<svg width="30" height="30" viewBox="0 0 30 30" fill="none" xmlns="http://www.w3.org/2000/svg">
<path d="M26.9697 28.0303C27.2626 28.3232 27.7374 28.3232 28.0303 28.0303C28.3232 27.7374 28.3232 27.2626 28.0303 26.9697L26.9697 28.0303ZM24.9697 26.0303L26.9697 28.0303L28.0303 26.9697L26.0303 24.9697L24.9697 26.0303ZM27.25 22C27.25 19.1005 24.8995 16.75 22 16.75V18.25C24.0711 18.25 25.75 19.9289 25.75 22H27.25ZM22 16.75C19.1005 16.75 16.75 19.1005 16.75 22H18.25C18.25 19.9289 19.9289 18.25 22 18.25V16.75ZM16.75 22C16.75 24.8995 19.1005 27.25 22 27.25V25.75C19.9289 25.75 18.25 24.0711 18.25 22H16.75ZM22 27.25C24.8995 27.25 27.25 24.8995 27.25 22H25.75C25.75 24.0711 24.0711 25.75 22 25.75V27.25Z" fill="#5E5E5E"/>
<path d="M27.5 15.0802V11.5219C27.5 9.09734 27.5 7.88508 26.7678 7.13188C26.0355 6.37868 24.857 6.37868 22.5 6.37868H19.9017C18.755 6.37868 18.7455 6.37644 17.7144 5.86043L13.5498 3.77643C11.811 2.9063 10.9416 2.47124 10.0155 2.50147C9.08929 2.53171 8.24847 3.0226 6.56681 4.00439L5.03197 4.90046C3.79673 5.62162 3.17911 5.9822 2.83956 6.58205C2.5 7.18191 2.5 7.91241 2.5 9.37341V19.6447C2.5 21.5643 2.5 22.5241 2.92783 23.0583C3.21251 23.4138 3.61145 23.6527 4.0525 23.7319C4.71533 23.851 5.52685 23.3772 7.14984 22.4297C8.25195 21.7862 9.31264 21.118 10.6311 21.2992C11.7359 21.451 12.7625 22.1481 13.75 22.6423" stroke="#5E5E5E" stroke-width="1.5" stroke-linecap="round" stroke-linejoin="round"/>
<path d="M10 5L10 19" stroke="#5E5E5E" stroke-width="1.5" stroke-linecap="round" stroke-linejoin="round"/>
<path d="M19 8L19 12" stroke="#5E5E5E" stroke-width="1.5" stroke-linecap="round" stroke-linejoin="round"/>
</svg>
