<svg width="23" height="25" viewBox="0 0 23 25" fill="none" xmlns="http://www.w3.org/2000/svg">
<path d="M13.2104 23.272C12.7117 23.739 12.045 24 11.3513 24C10.6575 24 9.99091 23.739 9.49216 23.272C4.92498 18.9699 -1.19562 14.164 1.78921 7.18661C3.40308 3.41403 7.2771 1 11.3513 1C15.4255 1 19.2995 3.41403 20.9134 7.18661C23.8944 14.1552 17.7889 18.9847 13.2104 23.272Z" fill="#080808" stroke="#080808" stroke-width="1.5"/>
<path d="M12.0446 7.90629L12.7529 9.33464C12.8495 9.53348 13.1071 9.72419 13.3244 9.76072L14.6082 9.97578C15.4292 10.1137 15.6224 10.7143 15.0308 11.3067L14.0327 12.3131C13.8637 12.4835 13.7711 12.8122 13.8234 13.0475L14.1092 14.2933C14.3346 15.2793 13.8154 15.6608 12.9501 15.1454L11.7468 14.4272C11.5294 14.2974 11.1713 14.2974 10.9499 14.4272L9.74657 15.1454C8.88532 15.6608 8.36212 15.2753 8.5875 14.2933L8.87324 13.0475C8.92556 12.8122 8.833 12.4835 8.66397 12.3131L7.66588 11.3067C7.07829 10.7143 7.26745 10.1137 8.08845 9.97578L9.37229 9.76072C9.58559 9.72419 9.84316 9.53348 9.93975 9.33464L10.6481 7.90629C11.0344 7.13125 11.6623 7.13125 12.0446 7.90629Z" fill="white" stroke="white" stroke-linecap="round" stroke-linejoin="round"/>
</svg>
