<svg width="23" height="24" viewBox="0 0 23 24" fill="none" xmlns="http://www.w3.org/2000/svg">
<path d="M0.8125 12.0002C0.8125 7.14862 0.8125 4.72286 2.37765 3.21568C3.9428 1.7085 6.46186 1.7085 11.5 1.7085C16.5381 1.7085 19.0572 1.7085 20.6224 3.21568C22.1875 4.72286 22.1875 7.14862 22.1875 12.0002C22.1875 16.8517 22.1875 19.2775 20.6224 20.7846C19.0572 22.2918 16.5381 22.2918 11.5 22.2918C6.46186 22.2918 3.9428 22.2918 2.37765 20.7846C0.8125 19.2775 0.8125 16.8517 0.8125 12.0002Z" fill="#080808" stroke="#080808" stroke-width="1.5"/>
<path d="M14.307 9.29183C14.307 10.7876 13.046 12.0002 11.4905 12.0002C9.93496 12.0002 8.67396 10.7876 8.67396 9.29183C8.67396 7.79606 9.93496 6.5835 11.4905 6.5835C13.046 6.5835 14.307 7.79606 14.307 9.29183Z" fill="#080808"/>
<path d="M6.4375 17.4168C9.06066 14.7711 13.9111 14.6466 16.5625 17.4168M14.307 9.29183C14.307 10.7876 13.046 12.0002 11.4905 12.0002C9.93496 12.0002 8.67396 10.7876 8.67396 9.29183C8.67396 7.79606 9.93496 6.5835 11.4905 6.5835C13.046 6.5835 14.307 7.79606 14.307 9.29183Z" stroke="white" stroke-width="1.5" stroke-linecap="round"/>
</svg>
